<svg width="18" height="18" viewBox="0 0 18 18" fill="none" xmlns="http://www.w3.org/2000/svg">
<path d="M7.15833 9.65829L2.33333 14.4916V13.1666C2.33333 12.9456 2.24553 12.7337 2.08925 12.5774C1.93297 12.4211 1.72101 12.3333 1.5 12.3333C1.27898 12.3333 1.06702 12.4211 0.910742 12.5774C0.754461 12.7337 0.666664 12.9456 0.666664 13.1666V16.5C0.667981 16.6089 0.69063 16.7164 0.733331 16.8166C0.817893 17.0203 0.979706 17.1821 1.18333 17.2666C1.28352 17.3093 1.3911 17.332 1.5 17.3333H4.83333C5.05434 17.3333 5.26631 17.2455 5.42259 17.0892C5.57887 16.9329 5.66666 16.721 5.66666 16.5C5.66666 16.2789 5.57887 16.067 5.42259 15.9107C5.26631 15.7544 5.05434 15.6666 4.83333 15.6666H3.50833L8.34166 10.8416C8.49858 10.6847 8.58674 10.4719 8.58674 10.25C8.58674 10.028 8.49858 9.81521 8.34166 9.65829C8.18474 9.50137 7.97192 9.41322 7.75 9.41322C7.52808 9.41322 7.31525 9.50137 7.15833 9.65829ZM17.2667 1.18329C17.1821 0.979668 17.0203 0.817855 16.8167 0.733293C16.7165 0.690592 16.6089 0.667943 16.5 0.666626H13.1667C12.9457 0.666626 12.7337 0.754423 12.5774 0.910704C12.4211 1.06698 12.3333 1.27895 12.3333 1.49996C12.3333 1.72097 12.4211 1.93293 12.5774 2.08922C12.7337 2.2455 12.9457 2.33329 13.1667 2.33329H14.4917L9.65833 7.15829C9.58022 7.23576 9.51823 7.32793 9.47592 7.42948C9.43361 7.53103 9.41183 7.63995 9.41183 7.74996C9.41183 7.85997 9.43361 7.96889 9.47592 8.07044C9.51823 8.17199 9.58022 8.26416 9.65833 8.34163C9.7358 8.41973 9.82797 8.48173 9.92952 8.52404C10.0311 8.56634 10.14 8.58812 10.25 8.58812C10.36 8.58812 10.4689 8.56634 10.5705 8.52404C10.672 8.48173 10.7642 8.41973 10.8417 8.34163L15.6667 3.50829V4.83329C15.6667 5.05431 15.7545 5.26627 15.9107 5.42255C16.067 5.57883 16.279 5.66663 16.5 5.66663C16.721 5.66663 16.933 5.57883 17.0893 5.42255C17.2455 5.26627 17.3333 5.05431 17.3333 4.83329V1.49996C17.332 1.39106 17.3094 1.28348 17.2667 1.18329Z" fill="#5F5F5F"/>
</svg>
