<svg width="25" height="16" viewBox="0 0 25 16" fill="none" xmlns="http://www.w3.org/2000/svg">
<path fill-rule="evenodd" clip-rule="evenodd" d="M17.776 1.01636C19.8568 1.49921 20.6528 2.71594 21.6507 4.39062H17.776V1.01636ZM5.61563 4.53125C6.02304 4.53125 6.31876 4.72791 6.31876 5.1875C6.31876 5.57513 6.0051 5.88953 5.61765 5.89062H1.36978C0.981415 5.89062 0.666656 6.20557 0.666656 6.59375C0.666656 6.98212 0.981415 7.29688 1.36978 7.29688H7.69791C8.08994 7.29688 8.40378 7.61145 8.40378 8C8.40378 8.38837 8.08902 8.70312 7.70065 8.70312H1.36978C0.981415 8.70312 0.666656 9.01788 0.666656 9.40625C0.666656 9.79462 0.981415 10.1094 1.36978 10.1094H2.91666V12.2188C2.91666 12.6071 3.23141 12.9219 3.61978 12.9219H5.03317C5.28513 14.163 6.38174 15.0781 7.67447 15.0781C8.96719 15.0781 10.0638 14.163 10.3158 12.9219H17.455C17.707 14.163 18.8036 15.0781 20.0963 15.0781C21.3891 15.0781 22.4857 14.163 22.7376 12.9219H23.9635C24.3519 12.9219 24.6667 12.6071 24.6667 12.2188V8C24.6667 5.93695 22.4906 5.79999 22.4886 5.79688H17.0729C16.6845 5.79688 16.3698 5.48212 16.3698 5.09375V0.875H3.61978C3.23141 0.875 2.91666 1.18976 2.91666 1.57812V3.125H2.07291C1.68454 3.125 1.36978 3.43976 1.36978 3.82812C1.36978 4.21649 1.68454 4.53125 2.07291 4.53125H5.61563ZM21.0078 11.4713C21.5112 11.9747 21.5112 12.7911 21.0078 13.2945C20.1982 14.1042 18.8073 13.5281 18.8073 12.3828C18.8073 11.2377 20.1982 10.6616 21.0078 11.4713ZM8.58597 11.4713C9.08932 11.9747 9.08932 12.7911 8.58597 13.2945C7.77628 14.1042 6.38541 13.5281 6.38541 12.3828C6.38541 11.2377 7.77628 10.6616 8.58597 11.4713Z" fill="#F5C109"/>
</svg>
