<svg width="25" height="24" viewBox="0 0 25 24" fill="none" xmlns="http://www.w3.org/2000/svg">
<g clip-path="url(#clip0_146_6437)">
<path d="M20.1051 20.5518H4.56561V23.3775H20.1051V20.5518Z" fill="white"/>
<path d="M18.7712 3.47596C18.2636 3.47596 17.7661 3.54332 17.2852 3.67658C16.8757 2.90047 16.288 2.23246 15.5597 1.72096C14.6211 1.0618 13.5169 0.713379 12.3663 0.713379C11.2105 0.713379 10.1022 1.06466 9.16105 1.72925C8.43275 2.24361 7.84625 2.91416 7.43881 3.69266C6.9403 3.54861 6.42355 3.47591 5.89531 3.47591C2.82842 3.47596 0.333313 5.97111 0.333313 9.038C0.333313 11.6169 2.11367 13.8382 4.56542 14.4398V19.0518H20.105V14.4388C22.5545 13.8357 24.3333 11.6146 24.3333 9.03796C24.3333 5.97111 21.8382 3.47596 18.7712 3.47596Z" fill="white"/>
</g>
<defs>
<clipPath id="clip0_146_6437">
<rect width="24" height="24" fill="white" transform="translate(0.333313)"/>
</clipPath>
</defs>
</svg>
