<svg width="86" height="59" viewBox="0 0 86 59" fill="none" xmlns="http://www.w3.org/2000/svg">
<g clip-path="url(#clip0_3081_2045)">
<path d="M47.9675 6.31673C47.9675 9.35134 45.7431 11.812 43 11.812C40.2568 11.812 38.0325 9.35134 38.0325 6.31673C38.0325 3.28212 47.9675 3.28212 47.9675 6.31673Z" fill="#BCBCBC"/>
<path d="M43 11.0559C23.2286 11.0559 7.20032 28.7872 7.20032 50.6593H78.7996C78.7996 28.7872 62.7714 11.0559 43 11.0559Z" fill="#C6C6C6"/>
<path d="M43 11.0559C41.3288 11.0559 39.6855 11.1858 38.0759 11.4311C55.5166 14.0855 68.9509 30.6352 68.9509 50.6593H78.7996C78.7996 28.7872 62.7714 11.0559 43 11.0559Z" fill="#B4B4B4"/>
<path d="M83.044 56.6662H2.95586C1.5992 56.6662 0.5 55.4495 0.5 53.9494V52.2197C0.5 50.7196 1.5992 49.5029 2.95586 49.5029H83.0446C84.4006 49.5029 85.4998 50.7196 85.4998 52.2197V53.9494C85.4998 55.4495 84.4006 56.6662 83.044 56.6662Z" fill="#9C9C9C"/>
</g>
<defs>
<clipPath id="clip0_3081_2045">
<rect width="85" height="59" fill="white" transform="translate(0.5)"/>
</clipPath>
</defs>
</svg>
