<svg width="20" height="14" viewBox="0 0 20 14" fill="none" xmlns="http://www.w3.org/2000/svg">
<path fill-rule="evenodd" clip-rule="evenodd" d="M18.9427 0.723878C19.1927 0.973915 19.3331 1.31299 19.3331 1.66654C19.3331 2.0201 19.1927 2.35917 18.9427 2.60921L8.27602 13.2759C8.02599 13.5258 7.68691 13.6663 7.33336 13.6663C6.97981 13.6663 6.64073 13.5258 6.39069 13.2759L1.05736 7.94254C0.81448 7.69107 0.680087 7.35427 0.683125 7.00468C0.686163 6.65508 0.826389 6.32066 1.0736 6.07345C1.32081 5.82624 1.65523 5.68602 2.00482 5.68298C2.35442 5.67994 2.69122 5.81433 2.94269 6.05721L7.33336 10.4479L17.0574 0.723878C17.3074 0.473917 17.6465 0.333496 18 0.333496C18.3536 0.333496 18.6927 0.473917 18.9427 0.723878Z" fill="white"/>
</svg>
