<svg width="24" height="24" viewBox="0 0 24 24" fill="none" xmlns="http://www.w3.org/2000/svg">
<path d="M6.07366 23.9795L6.51551 23.856C6.94051 23.7372 7.18875 23.2964 7.06999 22.8714L2.01828 4.79323C1.947 4.53811 1.77728 4.32175 1.54647 4.19176C1.31566 4.06177 1.04266 4.02879 0.787537 4.10009L0.730475 4.11602C0.199176 4.26447 -0.111192 4.81551 0.0372475 5.34681L5.08908 23.4249C5.20784 23.8499 5.64865 24.0982 6.07366 23.9795Z" fill="#F5C109"/>
<path d="M23.8635 11.3461C22.2614 10.5473 20.7794 9.5277 19.4607 8.31713C19.3498 8.21566 19.3065 8.0599 19.349 7.91575C20.0024 5.44383 20.4876 2.9305 20.8014 0.392998C20.851 -0.0290712 20.6235 -0.153209 20.3835 0.136446C15.6745 5.76817 7.5269 -0.893898 2.67725 4.22472C2.73547 4.33373 2.78127 4.44894 2.8138 4.56817L6.09104 16.3033C10.949 11.2468 19.0676 17.8675 23.7683 12.2482C24.0083 11.9585 24.0538 11.4289 23.8635 11.3461Z" fill="#F5C109"/>
</svg>
