<svg width="20" height="19" viewBox="0 0 20 19" fill="none" xmlns="http://www.w3.org/2000/svg">
<path d="M4.57836 17.7089L0.116779 11.0606C-0.0947654 10.7454 -0.0102281 10.3183 0.305517 10.1068L14.2124 0.796099C14.5278 0.584957 14.9545 0.66897 15.1658 0.983829L19.6274 7.63209C19.8389 7.94732 19.7544 8.37443 19.4387 8.58586L5.53176 17.8966C5.21638 18.1077 4.78966 18.0237 4.57836 17.7089Z" fill="#81CDA1"/>
<path d="M19.6274 7.63209L15.1659 0.983829C14.9546 0.66897 14.5279 0.584957 14.2125 0.796099L13.6713 1.15842L18.0157 7.63209C18.2273 7.94732 18.1427 8.37443 17.827 8.58586L4.46121 17.5343L4.57839 17.7089C4.78969 18.0237 5.21641 18.1077 5.53179 17.8966L19.4387 8.58586C19.7545 8.37443 19.839 7.94732 19.6274 7.63209Z" fill="#60BF88"/>
<path d="M13.5315 9.5653C13.6489 7.54582 12.105 5.81346 10.0833 5.69596C8.06151 5.57847 6.3274 7.12033 6.21004 9.1398C6.09267 11.1593 7.63649 12.8916 9.65826 13.0091C11.68 13.1266 13.4141 11.5848 13.5315 9.5653Z" fill="#29795D"/>
<path d="M2.20866 8.83276C3.12499 10.1982 2.75977 12.047 1.39291 12.9622L0.116225 11.0598C-0.0950374 10.745 -0.0102986 10.3184 0.305527 10.1069L2.20866 8.83276Z" fill="#29795D"/>
<path d="M3.30518 15.8117C4.67494 14.8947 6.52666 15.2558 7.44106 16.6184L5.53264 17.8961C5.21685 18.1075 4.78957 18.0237 4.57831 17.7089L3.30518 15.8117Z" fill="#29795D"/>
<path d="M17.5365 9.86133C16.6201 8.49588 16.9854 6.64706 18.3522 5.73193L19.6289 7.6343C19.8402 7.94912 19.7554 8.37572 19.4396 8.58714L17.5365 9.86133Z" fill="#29795D"/>
<path d="M16.4399 2.88243C15.0702 3.79952 13.2184 3.43837 12.304 2.07578L14.2125 0.798087C14.5282 0.586664 14.9555 0.670476 15.1668 0.985254L16.4399 2.88243Z" fill="#29795D"/>
<path d="M14.4746 6.56746C14.3771 6.56746 14.2815 6.5204 14.2232 6.43332C14.1304 6.29463 14.1675 6.10694 14.3062 6.01406L15.7289 5.06159C15.8676 4.96879 16.0553 5.0059 16.1482 5.14459C16.241 5.28329 16.2038 5.47098 16.0652 5.56385L14.6425 6.51633C14.5909 6.5509 14.5324 6.56746 14.4746 6.56746Z" fill="#29795D"/>
<path d="M3.84755 13.6824C3.75007 13.6824 3.65446 13.6354 3.59615 13.5483C3.50331 13.4096 3.54046 13.2219 3.67916 13.1291L5.10178 12.1766C5.24044 12.0837 5.42813 12.1209 5.52104 12.2596C5.61388 12.3983 5.57673 12.586 5.43804 12.6788L4.01541 13.6313C3.96375 13.6659 3.90533 13.6824 3.84755 13.6824Z" fill="#29795D"/>
</svg>
