<svg width="20" height="21" viewBox="0 0 20 21" fill="none" xmlns="http://www.w3.org/2000/svg">
<path d="M19.15 1.85977C18.7679 1.47033 18.2835 1.19698 17.7526 1.07134C17.2217 0.945697 16.6661 0.972887 16.15 1.14977L1.99999 5.87977C1.4293 6.06657 0.930677 6.42591 0.572941 6.9082C0.215206 7.39049 0.0160042 7.97193 0.00283413 8.57227C-0.0103359 9.1726 0.163175 9.76223 0.499416 10.2597C0.835656 10.7572 1.31804 11.1381 1.87999 11.3498L7.11999 13.3498C7.23931 13.3954 7.34795 13.4651 7.43913 13.5546C7.53032 13.644 7.6021 13.7513 7.64999 13.8698L9.64999 19.1198C9.85357 19.6738 10.223 20.1515 10.708 20.4879C11.1929 20.8244 11.7698 21.0031 12.36 20.9998H12.43C13.031 20.9888 13.6135 20.7901 14.0959 20.4314C14.5783 20.0728 14.9364 19.5722 15.12 18.9998L19.85 4.82977C20.022 4.3187 20.0476 3.76971 19.9239 3.24485C19.8002 2.72 19.5321 2.24022 19.15 1.85977ZM18 4.19977L13.22 18.3798C13.1645 18.5592 13.053 18.7162 12.9019 18.8278C12.7507 18.9394 12.5678 18.9996 12.38 18.9998C12.1932 19.0028 12.01 18.949 11.8546 18.8454C11.6992 18.7418 11.579 18.5933 11.51 18.4198L9.50999 13.1698C9.36499 12.7883 9.14138 12.4416 8.85367 12.1521C8.56596 11.8627 8.22059 11.637 7.83999 11.4898L2.58999 9.48977C2.41288 9.42487 2.26064 9.30597 2.15477 9.14985C2.0489 8.99374 1.99476 8.80832 1.99999 8.61977C2.00014 8.43191 2.0604 8.24903 2.17196 8.09789C2.28352 7.94675 2.44052 7.83527 2.61999 7.77977L16.8 3.04977C16.9628 2.98341 17.1413 2.96564 17.314 2.99859C17.4867 3.03154 17.6462 3.11381 17.7731 3.23545C17.9 3.35709 17.989 3.5129 18.0293 3.68403C18.0695 3.85516 18.0594 4.03429 18 4.19977Z" fill="#5F5F5F"/>
</svg>
