<svg width="15" height="15" viewBox="0 0 15 15" fill="none" xmlns="http://www.w3.org/2000/svg">
<path fill-rule="evenodd" clip-rule="evenodd" d="M7.6875 0.5C7.93614 0.5 8.1746 0.598775 8.35041 0.774588C8.52623 0.9504 8.625 1.18886 8.625 1.4375V6.75H13.9375C14.1861 6.75 14.4246 6.84877 14.6004 7.02459C14.7762 7.2004 14.875 7.43886 14.875 7.6875C14.875 7.93614 14.7762 8.1746 14.6004 8.35041C14.4246 8.52623 14.1861 8.625 13.9375 8.625H8.625V13.9375C8.625 14.1861 8.52623 14.4246 8.35041 14.6004C8.1746 14.7762 7.93614 14.875 7.6875 14.875C7.43886 14.875 7.2004 14.7762 7.02459 14.6004C6.84877 14.4246 6.75 14.1861 6.75 13.9375V8.625H1.4375C1.18886 8.625 0.9504 8.52623 0.774588 8.35041C0.598775 8.1746 0.5 7.93614 0.5 7.6875C0.5 7.43886 0.598775 7.2004 0.774588 7.02459C0.9504 6.84877 1.18886 6.75 1.4375 6.75H6.75V1.4375C6.75 1.18886 6.84877 0.9504 7.02459 0.774588C7.2004 0.598775 7.43886 0.5 7.6875 0.5Z" fill="#24292E"/>
</svg>
